/* XPM */
static char * can_xpm[] = {
"128 128 67 1",
" 	c None",
".	c #050C00",
"+	c #050D00",
"@	c #060E00",
"#	c #071200",
"$	c #081600",
"%	c #081700",
"&	c #081500",
"*	c #050E00",
"=	c #071300",
"-	c #091800",
";	c #0A1A00",
">	c #0D2000",
",	c #0F2500",
"'	c #0F2600",
")	c #0E2400",
"!	c #0C1F00",
"~	c #061200",
"{	c #081300",
"]	c #0A1900",
"^	c #0D2200",
"/	c #0D1F00",
"(	c #091700",
"_	c #061100",
":	c #060F00",
"<	c #091900",
"[	c #0D2100",
"}	c #0F2400",
"|	c #102700",
"1	c #0A1B00",
"2	c #0B1D00",
"3	c #0E2300",
"4	c #081400",
"5	c #0B1B00",
"6	c #0E2200",
"7	c #061000",
"8	c #102600",
"9	c #0C1E00",
"0	c #091600",
"a	c #0B1C00",
"b	c #0B1E00",
"c	c #0C1D00",
"d	c #0B1A00",
"e	c #040C00",
"f	c #071400",
"g	c #050B00",
"h	c #040B00",
"i	c #060D00",
"j	c #091300",
"k	c #071100",
"l	c #061300",
"m	c #071000",
"n	c #081200",
"o	c #0A1800",
"p	c #0A1C00",
"q	c #0E2100",
"r	c #070F00",
"s	c #0F2300",
"t	c #0C1C00",
"u	c #071500",
"v	c #050F00",
"w	c #040A00",
"x	c #0C2000",
"y	c #102500",
"z	c #0E2500",
"A	c #051000",
"B	c #091500",
"                                                                                                                                ",
"                                                                                                                                ",
"                                                                                                                                ",
"                                                                                                                                ",
"                                                                                                                                ",
"                                                                                                                                ",
"                                                                                                                                ",
"                                                                                                                                ",
"                                                                                                                                ",
"                                                                                                                                ",
"                                                                                                                                ",
"                                                                                                                                ",
"                                                                                                                                ",
"                                                                                                                                ",
"                                                                                                                                ",
"                                                                                                                                ",
"                                                                                                                                ",
"                                                                                                                                ",
"                                                                                                                                ",
"                                                                                                                                ",
"                                                                                                                                ",
"                                                                                                                                ",
"                                                                                                                                ",
"                                                                                                                                ",
"                                                                                                                                ",
"                                                                                                                                ",
"                                                                                                                                ",
"                                                                                                                                ",
"                                                                                                                                ",
"                                                                                                                                ",
"                                                                                                                                ",
"                                                                                                                                ",
"                                                                                                                                ",
"                                                                                                                                ",
"                                                                                                                                ",
"                                                                                                                                ",
"                                                                                                                                ",
"                                                                                                                                ",
"                                                                                                                                ",
"                                                                                                                                ",
"                                                                                                                                ",
"                                                                                                                                ",
"                                                                                                                                ",
"                                                                                                                                ",
"                                                                                                                                ",
"                                                                                                                                ",
"                                                                                                                                ",
"                                                                                                                                ",
"                                                                                                                                ",
"                                                                                                                                ",
"                                                                                                                                ",
"                                                                                                                                ",
"                                                                                                                                ",
"                                                                                                                                ",
"                                                                                                                                ",
"                                                                                                                                ",
"                                                                                                                                ",
"                                                                                                                                ",
"                                                                                                                                ",
"                                                                                                                                ",
"                                                                                                                                ",
"                                                                                                                                ",
"                                                                                                                                ",
"                                                                                                                                ",
"                                                                                                                                ",
"                                                                                                                                ",
"                                                                                                                                ",
"                                                                                                                                ",
"                                                                                                                                ",
"                                                                                                                                ",
"                                                      ...................                                                       ",
"                                                  ....+@#$%$%&*.*=%%$%$#@.....                                                  ",
"                                               ..*#=&%-;>,'')!=~{]^''',/](%&=_+..                                               ",
"                                             ..:&</[}||||||,1&2>!($3|||||||}[!-=+.                                              ",
"                                            .*45)||||||||||67[|||,$-|||||||||||6%7.                                             ",
"                                            ._>8||||||||||'2$'|||89$8|||||||||||}0..                                            ",
"                                            .7a6}|||||||||8[b|||||}2'|||||||||,6c=..                                            ",
"                                            ..+7-^6),,,'8||||||||||8||8,,,})6[d7....                                            ",
"                                            ..+:..7$<;1c/[^^^^666^^^^[/c;<<$:e.@@...                                            ",
"                                            ..:f@::#7+...ghhhhi7@hhhh...++_#@@:#jg.                                             ",
"                                             ..+__=;0::7==#k_7777_k#==l7:7(5#m#+..                                              ",
"                                             .+_f@.h.@no22;<((&&$(o;p2a(k@gh.@=#..                                              ",
"                                              :p3;$&#____7@@++++++i@:7___k=&&]69..                                              ",
"                                              :a|||8q!9992;]--(((-o]1c999!6'|||9..                                              ",
"                                              @;|||||||||||||||||||||||||||||||9.                                               ",
"                                              +(||||83)||||||||'8||||||||33||||9.                                               ",
"                                              +$||||}#&|||||||,b/|||||||'4:|||8].                                               ",
"                                              .&||||).#,|||||8>+~|||||||,k:8||84.                                               ",
"                                              .f||||)h7q|||||8>+_|||||||)7@|||8r.                                               ",
"                                              .=||||)e:c|||||8>+_|||||||3@@|||8@.                                               ",
"                                              .=||||}+@;|||||8>+_|||||||^+:|||8..                                               ",
"                                              .=8|||}:*-|||||8>+_|||||||^+7|||8h.                                               ",
"                                              .k6|||}m+-|||||8>+~|||||||^.#|||,g.                                               ",
"                                              .:5|||,4+%|||||8/.~|||||||[.4|||[..                                               ",
"                                              .+(|||'5+$|||||8/.~|||||||[+(||8d..                                               ",
"                                              .+$|||8[+$|||||8/.~|||||||>+;||80..                                               ",
"                                               .f||||s+$8||||8/.~||||||8t+1||84.                                                ",
"                                               .=||||}+u,||||8/.~||||||'$+1||8f.                                                ",
"                                               .=||||}.=}||||8/.~||||||'k+5||8f.                                                ",
"                                               .=8|||}.#)||||8/.~||||||':+a||'=.                                                ",
"                                               .=,|||}+~)||||8/.~||||||'+*c||,m.                                                ",
"                                               .#3|||}@_3||||8/.~||||||,h@/||):.                                                ",
"                                               ._q|||}7_3||||8/.~||||||,h@3||3+.                                                ",
"                                               ._[|||,=_3||||8/.~||||||,h:,||6..                                                ",
"                                               ._[|||,$_3||||8/.~||||||3.@|||6..                                                ",
"                                               ._[|||,-_6||||8/.~|||||8/.*|||6..                                                ",
"                                               ._>|||,-:9||||8/.~|||||8a.v|||>..                                                ",
"                                               .7/|||,-@]||||8/.~|||||8].m||8<.                                                 ",
"                                                :5|||,-+$||||8!.~|||||8-.#||8#.                                                 ",
"                                                +(|||,].4||||8/.~|||||'-+&||8:.                                                 ",
"                                                +&|||,;.=||||8!.~|||||'(+d||'+.                                                 ",
"                                                .4|||'a.#||||8!.~|||||'(@>||'w.                                                 ",
"                                                .=|||8!.~||||8!.~|||||'$:)||'h.                                                 ",
"                                                .l||||^._||||8!.~|||||'=:)||)..                                                 ",
"                                                .l||||3gk'|||8!.~|||||,r:)||x..                                                 ",
"                                                .#y|||}gk}|||8!.~|||||,@:)|8a..                                                 ",
"                                                ._[|||)h7[|||8!.~|||||,+7}|8;..                                                 ",
"                                                .:t|||}.:9|||8!.~|||||}.k}|8].                                                  ",
"                                                .@;|||}:72|||8!.~|||||z@f,|8-.                                                  ",
"                                                .@;|||,1;3|||8xAu||||||[>||8o.                                                  ",
"                                                 *-||||||||||||||||||||||||8B.                                                  ",
"                                                 +(||||||||||||||||||||||||'k.                                                  ",
"                                                 +fs8|||||||||||||||||||||'>+.                                                  ",
"                                                 ..*;s,88|||||||||||||88,3&...                                                  ",
"                                                  ...+=%9,''8888888''}a&#...                                                    ",
"                                                    .......:=]5a5o{@.g....                                                      ",
"                                                        ...............                                                         ",
"                                                                                                                                "};
