/* XPM */
static char * north_tex128_xpm[] = {
"128 128 2 1",
" 	c #00324B",
".	c #121212",
"      ..                              ..                                    ..                              ..                  ",
"      ..                              ..                                    ..                              ..                  ",
"      ..                              ..                                    ..                              ..                  ",
"      ..                              ..                                    ..                              ..                  ",
"      ..                              ..                                    ..                              ..                  ",
"      ..                              ..                                    ..                              ..                  ",
"................................................................................................................................",
"................................................................................................................................",
"            ..                                    ..                                      ..                            ..      ",
"            ..                                    ..                                      ..                            ..      ",
"            ..                                    ..                                      ..                            ..      ",
"            ..                                    ..                                      ..                            ..      ",
"            ..                                    ..                                      ..                            ..      ",
"            ..                                    ..                                      ..                            ..      ",
"................................................................................................................................",
"................................................................................................................................",
"      ..                          ..                                ..                                ..                        ",
"      ..                          ..                                ..                                ..                        ",
"      ..                          ..                                ..                                ..                        ",
"      ..                          ..                                ..                                ..                        ",
"      ..                          ..                                ..                                ..                        ",
"      ..                          ..                                ..                                ..                        ",
"................................................................................................................................",
"................................................................................................................................",
"                  ..                                  ..                              ..                                ..      ",
"                  ..                                  ..                              ..                                ..      ",
"                  ..                                  ..                              ..                                ..      ",
"                  ..                                  ..                              ..                                ..      ",
"                  ..                                  ..                              ..                                ..      ",
"                  ..                                  ..                              ..                                ..      ",
"................................................................................................................................",
"................................................................................................................................",
"      ..                        ..                                          ..                                    ..            ",
"      ..                        ..                                          ..                                    ..            ",
"      ..                        ..                                          ..                                    ..            ",
"      ..                        ..                                          ..                                    ..            ",
"      ..                        ..                                          ..                                    ..            ",
"      ..                        ..                                          ..                                    ..            ",
"................................................................................................................................",
"................................................................................................................................",
"                        ..                                    ..                                ..                      ..      ",
"                        ..                                    ..                                ..                      ..      ",
"                        ..                                    ..                                ..                      ..      ",
"                        ..                                    ..                                ..                      ..      ",
"                        ..                                    ..                                ..                      ..      ",
"                        ..                                    ..                                ..                      ..      ",
"................................................................................................................................",
"................................................................................................................................",
"      ..                                    ..                                        ..                          ..            ",
"      ..                                    ..                                        ..                          ..            ",
"      ..                                    ..                                        ..                          ..            ",
"      ..                                    ..                                        ..                          ..            ",
"      ..                                    ..                                        ..                          ..            ",
"      ..                                    ..                                        ..                          ..            ",
"................................................................................................................................",
"................................................................................................................................",
"                  ..                                  ..                                        ..                      ..      ",
"                  ..                                  ..                                        ..                      ..      ",
"                  ..                                  ..                                        ..                      ..      ",
"                  ..                                  ..                                        ..                      ..      ",
"                  ..                                  ..                                        ..                      ..      ",
"                  ..                                  ..                                        ..                      ..      ",
"................................................................................................................................",
"................................................................................................................................",
"      ..                              ..                              ..                              ..                        ",
"      ..                              ..                              ..                              ..                        ",
"      ..                              ..                              ..                              ..                        ",
"      ..                              ..                              ..                              ..                        ",
"      ..                              ..                              ..                              ..                        ",
"      ..                              ..                              ..                              ..                        ",
"................................................................................................................................",
"................................................................................................................................",
"                  ..                                  ..                              ..                                ..      ",
"                  ..                                  ..                              ..                                ..      ",
"                  ..                                  ..                              ..                                ..      ",
"                  ..                                  ..                              ..                                ..      ",
"                  ..                                  ..                              ..                                ..      ",
"                  ..                                  ..                              ..                                ..      ",
"................................................................................................................................",
"................................................................................................................................",
"      ..                        ..                                          ..                              ..                  ",
"      ..                        ..                                          ..                              ..                  ",
"      ..                        ..                                          ..                              ..                  ",
"      ..                        ..                                          ..                              ..                  ",
"      ..                        ..                                          ..                              ..                  ",
"      ..                        ..                                          ..                              ..                  ",
"................................................................................................................................",
"................................................................................................................................",
"            ..                          ..                          ..                        ..                        ..      ",
"            ..                          ..                          ..                        ..                        ..      ",
"            ..                          ..                          ..                        ..                        ..      ",
"            ..                          ..                          ..                        ..                        ..      ",
"            ..                          ..                          ..                        ..                        ..      ",
"            ..                          ..                          ..                        ..                        ..      ",
"................................................................................................................................",
"................................................................................................................................",
"      ..                                          ..                              ..                  ..                        ",
"      ..                                          ..                              ..                  ..                        ",
"      ..                                          ..                              ..                  ..                        ",
"      ..                                          ..                              ..                  ..                        ",
"      ..                                          ..                              ..                  ..                        ",
"      ..                                          ..                              ..                  ..                        ",
"................................................................................................................................",
"................................................................................................................................",
"                  ..                                        ..                                ..                        ..      ",
"                  ..                                        ..                                ..                        ..      ",
"                  ..                                        ..                                ..                        ..      ",
"                  ..                                        ..                                ..                        ..      ",
"                  ..                                        ..                                ..                        ..      ",
"                  ..                                        ..                                ..                        ..      ",
"................................................................................................................................",
"................................................................................................................................",
"      ..                          ..                                                  ..                    ..                  ",
"      ..                          ..                                                  ..                    ..                  ",
"      ..                          ..                                                  ..                    ..                  ",
"      ..                          ..                                                  ..                    ..                  ",
"      ..                          ..                                                  ..                    ..                  ",
"      ..                          ..                                                  ..                    ..                  ",
"................................................................................................................................",
"................................................................................................................................",
"                        ..                                                                                              ..      ",
"                        ..                                                                                              ..      ",
"                        ..                                                                                              ..      ",
"                        ..                                                                                              ..      ",
"                        ..                                                                                              ..      ",
"                        ..                                                                                              ..      ",
"................................................................................................................................",
"................................................................................................................................"};
