/* XPM */
static char * south_tex128_xpm[] = {
"128 128 13 1",
" 	c #001831",
".	c #060606",
"+	c #001830",
"@	c #001730",
"#	c #00172F",
"$	c #050505",
"%	c #00162F",
"&	c #00162E",
"*	c #00152E",
"=	c #040404",
"-	c #00152D",
";	c #00142D",
">	c #00132D",
"      ..                              ..                                    ..                              ..                  ",
"      ..                              ..                                    ..                              ..                  ",
"      ..                              ..                                    ..                              ..                  ",
"      ..                              ..                                    ..                              ..                  ",
"      ..                              ..                                    ..                              ..                  ",
"      ..                              ..                                    ..                              ..                  ",
"................................................................................................................................",
"................................................................................................................................",
"            ..                                    ..                                      ..                            ..      ",
"            ..                                    ..                                      ..                            ..      ",
"            ..                                    ..                                      ..                            ..      ",
"            ..                                    ..                                      ..                            ..      ",
"            ..                     +++++++++++++++..+++++++++++++++++++++++++++++++++++   ..                            ..      ",
"    ++++++++..++++++++++++++++++++++++++++++++++++..++++++++++++++++++++++++++++++++++++++..+++++++++++++++++++++++++++ ..      ",
"................................................................................................................................",
"................................................................................................................................",
"++++++..++++++++++++++++++++++++++..++++++++++++++++++++++++++++++++..++++++++++++++++++++++++++++++++..++++++++++++++++++++++++",
"++++++..++++++++++++++++++++++++++..++++++++++++++++++++++++++++++++..++++++++++++++++++++++++++++++++..++++++++++++++++++++++++",
"++++++..++++++++++++++++++++++++++..++++++++++++++++++++++++++++++++..++++++++++++++++++++++++++++++++..++++++++++++++++++++++++",
"++++++..++++++++++++++++++++++++++..++++++++++++++++++++++++++++++++..++++++++++++++++++++++++++++++++..++++++++++++++++++++++++",
"++++++..++++++++++++++++++++++++++..++++++++++++++++++++++++++++++++..++++++++++++++++++++++++++++++++..++++++++++++++++++++++++",
"++++++..++++++++++++++++++++++++++..++++++++++++++++++++++++++++++++..++++++++++++++++++++++++++++++++..++++++++++++++++++++++++",
"................................................................................................................................",
"................................................................................................................................",
"++++++++++++++++++..++++++++++++++++++++++++++++++++++..++++++++++++++++++++++++++++++..++++++++++++++++++++++++++++++++..++++++",
"++++++++++++++++++..++++++++++++++++++++++++++++++++++..++++++++++++++++++++++++++++++..++++++++++++++++++++++++++++++++..++++++",
"++++++++++++++++++..++++++++++++++++++++++++++++++++++..++++++++++++++++++++++++++++++..++++++++++++++++++++++++++++++++..++++++",
"++++++++++++++++++..++++++++++++++++++++++++++++++++++..++++++++++++++++++++++++++++++..++++++++++++++++++++++++++++++++..++++++",
"++++++++++++++++++..++++++++++++++++++++++++++++++++++..++++++++++++++++++++++++++++++..++++++++++++++++++++++++++++++++..++++++",
"++++++++++++++++++..++++++++++++++++++++++++++++++++++..++++++++++++++++++++++++++++++..++++++++++++++++++++++++++++++++..++++++",
"................................................................................................................................",
"................................................................................................................................",
"@@@@@@..@@@@@@@@@@@@@@@@@@@@@@@@..@@@@@@@@@@@@@@@@@@@@@@@@@@@@@@@@@@@@@@@@@@..@@@@@@@@@@@@@@@@@@@@@@@@@@@@@@@@@@@@..@@@@@@@@@@@@",
"@@@@@@..@@@@@@@@@@@@@@@@@@@@@@@@..@@@@@@@@@@@@@@@@@@@@@@@@@@@@@@@@@@@@@@@@@@..@@@@@@@@@@@@@@@@@@@@@@@@@@@@@@@@@@@@..@@@@@@@@@@@@",
"@@@@@@..@@@@@@@@@@@@@@@@@@@@@@@@..@@@@@@@@@@@@@@@@@@@@@@@@@@@@@@@@@@@@@@@@@@..@@@@@@@@@@@@@@@@@@@@@@@@@@@@@@@@@@@@..@@@@@@@@@@@@",
"@@@@@@..@@@@@@@@@@@@@@@@@@@@@@@@..@@@@@@@@@@@@@@@@@@@@@@@@@@@@@@@@@@@@@@@@@@..@@@@@@@@@@@@@@@@@@@@@@@@@@@@@@@@@@@@..@@@@@@@@@@@@",
"@@@@@@..@@@@@@@@@@@@@@@@@@@@@@@@..@@@@@@@@@@@@@@@@@@@@@@@@@@@@@@@@@@@@@@@@@@..@@@@@@@@@@@@@@@@@@@@@@@@@@@@@@@@@@@@..@@@@@@@@@@@@",
"@@@@@@..@@@@@@@@@@@@@@@@@@@@@@@@..@@@@@@@@@@@@@@@@@@@@@@@@@@@@@@@@@@@@@@@@@@..@@@@@@@@@@@@@@@@@@@@@@@@@@@@@@@@@@@@..@@@@@@@@@@@@",
"................................................................................................................................",
"................................................................................................................................",
"@@@@@@@@@@@@@@@@@@@@@@@@..@@@@@@@@@@@@@@@@@@@@@@@@@@@@@@@@@@@@..@@@@@@@@@@@@@@@@@@@@@@@@@@@@@@@@..@@@@@@@@@@@@@@@@@@@@@@..@@@@@@",
"@@@@@@@@@@@@@@@@@@@@@@@@..@@@@@@@@@@@@@@@@@@@@@@@@@@@@@@@@@@@@..@@@@@@@@@@@@@@@@@@@@@@@@@@@@@@@@..@@@@@@@@@@@@@@@@@@@@@@..@@@@@@",
"@@@@@@@@@@@@@@@@@@@@@@@@..@@@@@@@@@@@@@@@@@@@@@@@@@@@@@@@@@@@@..@@@@@@@@@@@@@@@@@@@@@@@@@@@@@@@@..@@@@@@@@@@@@@@@@@@@@@@..@@@@@@",
"@@@@@@@@@@@@@@@@@@@@@@@@..@@@@@@@@@@@@@@@@@@@@@@@@@@@@@@@@@@@@..@@@@@@@@@@@@@@@@@@@@@@@@@@@@@@@@..@@@@@@@@@@@@@@@@@@@@@@..@@@@@@",
"@@@@@@@@@@@@@@@@@@@@@@@@..@@@@@@@@@@@@@@@@@@@@@@@@@@@@@@@@@@@@..@@@@@@@@@@@@@@@@@@@@@@@@@@@@@@@@..@@@@@@@@@@@@@@@@@@@@@@..@@@@@@",
"@@@@@@@@@@@@@@@@@@@@@@@@..@@@@@@@@@@@@@@@@@@@@@@@@@@@@@@@@@@@@..@@@@@@@@@@@@@@@@@@@@@@@@@@@@@@@@..@@@@@@@@@@@@@@@@@@@@@@..@@@@@@",
"................................................................................................................................",
"................................................................................................................................",
"######..####################################..########################################..##########################..############",
"######..####################################..########################################..##########################..############",
"######..####################################..########################################..##########################..############",
"######..####################################..########################################..##########################..############",
"######..####################################..########################################..##########################..############",
"######..####################################..########################################..##########################..############",
"$$$$$$$$$$$$$$$$$$$$$$$$$$$$$$$$$$$$$$$$$$$$$$$$$$$$$$$$$$$$$$$$$$$$$$$$$$$$$$$$$$$$$$$$$$$$$$$$$$$$$$$$$$$$$$$$$$$$$$$$$$$$$$$.",
"$$$$$$$$$$$$$$$$$$$$$$$$$$$$$$$$$$$$$$$$$$$$$$$$$$$$$$$$$$$$$$$$$$$$$$$$$$$$$$$$$$$$$$$$$$$$$$$$$$$$$$$$$$$$$$$$$$$$$$$$$$$$$$$$",
"##################$$##################################$$########################################$$######################$$######",
"##################$$##################################$$########################################$$######################$$######",
"##################$$###########%%%%%%%%%%%%%%%%%%%%%%%$$%%%%%%%%%%%%%%%%%%%%%%%%%%%%%%%%%%%%%%##$$######################$$######",
"%%%%%%%%%%%%%%%%%%$$%%%%%%%%%%%%%%%%%%%%%%%%%%%%%%%%%%$$%%%%%%%%%%%%%%%%%%%%%%%%%%%%%%%%%%%%%%%%$$%%%%%%%%%%%%%%%%%%%%%%$$%%%%%%",
"%%%%%%%%%%%%%%%%%%$$%%%%%%%%%%%%%%%%%%%%%%%%%%%%%%%%%%$$%%%%%%%%%%%%%%%%%%%%%%%%%%%%%%%%%%%%%%%%$$%%%%%%%%%%%%%%%%%%%%%%$$%%%%%%",
"%%%%%%%%%%%%%%%%%%$$%%%%%%%%%%%%%%%%%%%%%%%%%%%%%%%%%%$$%%%%%%%%%%%%%%%%%%%%%%%%%%%%%%%%%%%%%%%%$$%%%%%%%%%%%%%%%%%%%%%%$$%%%%%%",
"$$$$$$$$$$$$$$$$$$$$$$$$$$$$$$$$$$$$$$$$$$$$$$$$$$$$$$$$$$$$$$$$$$$$$$$$$$$$$$$$$$$$$$$$$$$$$$$$$$$$$$$$$$$$$$$$$$$$$$$$$$$$$$$$",
"$$$$$$$$$$$$$$$$$$$$$$$$$$$$$$$$$$$$$$$$$$$$$$$$$$$$$$$$$$$$$$$$$$$$$$$$$$$$$$$$$$$$$$$$$$$$$$$$$$$$$$$$$$$$$$$$$$$$$$$$$$$$$$$$",
"%%%%%%$$%%%%%%%%%%%%%%%%%%%%%%%%%%%%%%$$%%%%%%%%%%%%%%%%%%%%%%%%%%%%%%$$%%%%%%%%%%%%%%%%%%%%%%%%%%%%%%$$%%%%%%%%%%%%%%%%%%%%%%%%",
"%%%%%%$$%%%%%%%%%%%%%%%%%%%%%%%%%%%%%%$$%%%%%%%%%%%%%%%%%%%%%%%%%%%%%%$$%%%%%%%%%%%%%%%%%%%%%%%%%%%%%%$$%%%%%%%%%%%%%%%%%%%%%%%%",
"%%%%%%$$%%%%%%%%%%%%%%%%%%%%%%%%%%%%%%$$%%%%%%%%%%%%%%%%%%%%%%%%%%%%%%$$%%%%%%%%%%%%%%%%%%%%%%%%%%%%%%$$%%%%%%%%%%%%%%%%%%%%%%%%",
"%%%%%%$$%%%%%%%%%%%%%%%%%%%%%%%%%%%%%%$$%%%%%%%%%%%%%%%%%%%%%%%%%%%%%%$$%%%%%%%%%%%%%%%%%%%%%%%%%%%%%%$$%%%%%%%%%%%%%%%%%%%%%%%%",
"%%%%%%$$%%%%%%%%%%%%%%%%%%%%%%%%%%%%%%$$%%%%%%%%%%%%%%%%%%%%%%%%%%%%%%$$%%%%%%%%%%%%%%%%%%%%%%%%%%%%%%$$%%%%%%%%%%%%%%%%%%%%%%%%",
"%%%%%%$$%%%%%%%%%%%%%%%%%%%%%%%%%%%%%%$$%%%%%%%%%%%%%%%%%%%%%%%%%%%%%%$$%%%%%%%%%%%%%%%%%%%%%%%%%%%%%%$$%%%%%%%%%%%%%%%%%%%%%%%%",
"$$$$$$$$$$$$$$$$$$$$$$$$$$$$$$$$$$$$$$$$$$$$$$$$$$$$$$$$$$$$$$$$$$$$$$$$$$$$$$$$$$$$$$$$$$$$$$$$$$$$$$$$$$$$$$$$$$$$$$$$$$$$$$$$",
"$$$$$$$$$$$$$$$$$$$$$$$$$$$$$$$$$$$$$$$$$$$$$$$$$$$$$$$$$$$$$$$$$$$$$$$$$$$$$$$$$$$$$$$$$$$$$$$$$$$$$$$$$$$$$$$$$$$$$$$$$$$$$$$$",
"%%%%%%%%%%%%%%%%%%$$%%%%%%%%%%%%%%%%%%%%%%%%%%%%%%%%%%$$%%%%%%%%%%%%%%%%%%%%%%%%%%%%%%$$%%%%%%%%%%%%%%%%%%%%%%%%%%%%%%%%$$%%%%%%",
"%%%%%%%%%%%%%%%%%%$$%%%%%%%%%%%%%%%%%%%%%%%%%%%%%%%%%%$$%%%%%%%%%%%%%%%%%%%%%%%%%%%%%%$$%%%%%%%%%%%%%%%%%%%%%%%%%%%%%%%%$$%%%%%%",
"%%%%%%%%%%%%%%%%%%$$%%%%%%%%%%%%%%%%%%%%%%%%%%%%%%%%%%$$%%%%%%%%%%%%%%%%%%%%%%%%%%%%%%$$%%%%%%%%%%%%%%%%%%%%%%%%%%%%%%%%$$%%%%%%",
"%%%%%%%%%%%%%%%%%%$$%%%%%%%%%%%%%%%%%%%%%%%%%%%%%%%%%%$$%%%%%%%%%%%%%%%%%%%%%%%%%%%%%%$$%%%%%%%%%%%%%%%%%%%%%%%%%%%%%%%%$$%%%%%%",
"%%%%%%%%%%%%%%%%%%$$%%%%%%%%%%%%%%%%%%%%%%%%%%%%%%%%%%$$%%%%%%%%%%%%%%%%%%%%%%%%%%%%%%$$%%%%%%%%%%%%%%%%%%%%%%%%%%%%%%%%$$%%%%%%",
"%%%%%&&&&&&&&&&&&&$$&&&&&&&&&&&&&&&&&&&&&&&&&&&&&&&&&&$$&&&&&&&&&&&&&&&&&&&&&&&&&&&&&&$$&&&&&&&&&&&&&&&&&&&&&&&&&&&&&&&&$$%%%%%%",
"$$$$$$$$$$$$$$$$$$$$$$$$$$$$$$$$$$$$$$$$$$$$$$$$$$$$$$$$$$$$$$$$$$$$$$$$$$$$$$$$$$$$$$$$$$$$$$$$$$$$$$$$$$$$$$$$$$$$$$$$$$$$$$$$",
"$$$$$$$$$$$$$$$$$$$$$$$$$$$$$$$$$$$$$$$$$$$$$$$$$$$$$$$$$$$$$$$$$$$$$$$$$$$$$$$$$$$$$$$$$$$$$$$$$$$$$$$$$$$$$$$$$$$$$$$$$$$$$$$$",
"&&&&&&$$&&&&&&&&&&&&&&&&&&&&&&&&$$&&&&&&&&&&&&&&&&&&&&&&&&&&&&&&&&&&&&&&&&&&$$&&&&&&&&&&&&&&&&&&&&&&&&&&&&&&$$&&&&&&&&&&&&&&&&&&",
"&&&&&&$$&&&&&&&&&&&&&&&&&&&&&&&&$$&&&&&&&&&&&&&&&&&&&&&&&&&&&&&&&&&&&&&&&&&&$$&&&&&&&&&&&&&&&&&&&&&&&&&&&&&&$$&&&&&&&&&&&&&&&&&&",
"&&&&&&$$&&&&&&&&&&&&&&&&&&&&&&&&$$&&&&&&&&&&&&&&&&&&&&&&&&&&&&&&&&&&&&&&&&&&$$&&&&&&&&&&&&&&&&&&&&&&&&&&&&&&$$&&&&&&&&&&&&&&&&&&",
"******$$************************$$******************************************$$******************************$$******************",
"******$$************************$$******************************************$$******************************$$******************",
"******$$************************$$******************************************$$******************************$$******************",
"$$$$$$$$$$$$$$$$$$$$$$$$$$$$$$$$$$$$$$$$$$$$$$$$$$$$$$$$$$$$$$$$$$$$$$$$$$$$$$$$$$$$$$$$$$$$$$$$$$$$$$$$$$$$$$$$$$$$$$$$$$$$$$$$",
"$$$$$$$$$$$$$$$$$$$$$$$$$$$$$$$$$$$$$$$$$$$$$$$$$$$$$$$$$$$$$$$$$$$$$$$$$$$$$$$$$$$$$$$$$$$$$$$$$$$$$$$$$$$$$$$$$$$$$$$$$$$$$$$$",
"************$$**************************$$**************************$$************************$$************************$$******",
"************$$**************************$$**************************$$************************$$************************$$******",
"************$$**************************$$**************************$$************************$$************************$$******",
"************$$**************************$$**************************$$************************$$************************$$******",
"************$$**************************$$**************************$$************************$$************************$$******",
"************$$**************************$$**************************$$************************$$************************$$******",
"$$$$$$$$$$$$$$$$$$$$$$$$$$$$$$$$$$$$$$$$$$$$$$$$$$$$$$$$$$$$$$$$$$$$$$$$$$$$$$$$$$$$$$$$$$$$$$$$$$$$$$$$$$$$$$$$$$$$$$$$$$$$$$$$",
"$$$$$$$$$$$$$$$$$$$$$$$$$$$$$$$$$$$$$$$$$$$$$$$$$$$$$$$$$$$$$$$$$$$$$$$$$$$$$$$$$$$$$$$$$$$$$$$$$$$$$$$$$$$$$$$$$$$$$$$$$$$$$$$$",
"******$$******************************************$$******************************$$******************$$************************",
"******$$******************************************$$******************************$$******************$$************************",
"******$$******************************************$$******************************$$******************$$************************",
"******$$******************************************$$******************************$$******************$$************************",
"******==******************************************==******************************==******************==************************",
"******==******************************************==******************************==******************==************************",
"================================================================================================================================",
"================================================================================================================================",
"------------------==----;;;;;;;;;;;;;;;;;;;;;;;;;;;;;;;;;;;;==;;;;;;;;;;;;;;;;;;;;;;;;;;;;;;;;==;;;;;;;-----------------==------",
";;;;;;;;;;;;;;;;;;==;;;;;;;;;;;;;;;;;;;;;;;;;;;;;;;;;;;;;;;;==;;;;;;;;;;;;;;;;;;;;;;;;;;;;;;;;==;;;;;;;;;;;;;;;;;;;;;;;;==;;;;;;",
";;;;;;;;;;;;;;;;;;==;;;;;;;;;;;;;;;;;;;;;;;;;;;;;;;;;;;;;;;;==;;;;;;;;;;;;;;;;;;;;;;;;;;;;;;;;==;;;;;;;;;;;;;;;;;;;;;;;;==;;;;;;",
";;;;;;;;;;;;;;;;;;==;;;;;;;;;;;;;;;;;;;;;;;;;;;;;;;;;;;;;;;;==;;;;;;;;;;;;;;;;;;;;;;;;;;;;;;;;==;;;;;;;;;;;;;;;;;;;;;;;;==;;;;;;",
";;;;;;;;;;;;;;;;;;==;;;;;;;;;;;;;;;;;;;;;;;;;;;;;;;;;;;;;;;;==;;;;;;;;;;;;;;;;;;;;;;;;;;;;;;;;==;;;;;;;;;;;;;;;;;;;;;;;;==;;;;;;",
";;;;;;;;;;;;;;;;;;==;;;;;;;;;;;;;;;;;;;;;;;;;;;;;;;;;;;;;;;;==;;;;;;;;;;;;;;;;;;;;;;;;;;;;;;;;==;;;;;;;;;;;;;;;;;;;;;;;;==;;;;;;",
"================================================================================================================================",
"================================================================================================================================",
";;;;;;==;;;;;;;;;;;;;;;;;;;;;;;;;;==;;;;;;;;;;;;;;;;;;;;;;;;;;;;;;;;;;;;;;;;;;;;;;;;;;==;;;;;;;;;;;;;;;;;;;;==;;;;;;;;;;;;;;;;;;",
";;;;;;==;;;;;;;;;;;;;;;;;;;;;;;;;;==;;;;;;;;;;;;;;;;;;;;;;;;;;;;;;;;;;;;;;;;;;;;;;;;;;==;;;;;;;;;;;;;;;;;;;;==;;;;;;;;;;;;;;;;;;",
";;;;;;==;;;;;;;;;;;;;;;;;;;;;;;;;;==;;;;;;;;;;;;;;;;;;;;;;;;;;;;;;;;;;;;;;;;;;;;;;;;;;==;;;;;;;;;;;;;;;;;;;;==;;;;;;;;;;;;;;;;;;",
";;;;;;==;;;;;;;;;;;;;;;;;;;;;;;;;;==;;;;;;;;;;;;;;;;;;;;;;;;;;;;;;;;;;;;;;;;;;;;;;;;;;==;;;;;;;;;;;;;;;;;;;;==;;;;;;;;;;;;;;;;;;",
";;;;;;==;;;;;;;;;;;;;;;;;;;;;;;;;;==;;;;;;;;;;;;;;;;;;;;;;;;;;;;;;;;;;;;;;;;;;;;;;;;;;==;;;;;;;;;;;;;;;;;;;;==;;;;;;;;;;;;;;;;;;",
";;;;;;==;;;;;;;;;;;;;;;;;;;;;;;;;;==;;;;;;;;;;;;;;;;;;;;;;;;;;;;;;;;;;;;;;;;;;;;;;;;;;==;;;;;;;;;;;;;;;;;;;;==;;;;;;;;;;;;;;;;;;",
"================================================================================================================================",
"================================================================================================================================",
";;;;;;;;;;;;;;;;;;;;;;;;==;;;;;;;;;;;;;;;;;;;;;;;;;;;;;;;;;;;;;;;;;;;;;;;;;;;;;;;;;;;;;;;;;;;;;;;;;;;;;;;;;;;;;;;;;;;;;;==;;;;;;",
";;;;;;;;;;;;;;;;;;;;;;;;==;;;;;;;;;;;;;;;;;;;;;;;;;;;;;;;;;;;;;;;;;;;;;;;;;;;;;;;;;;;;;;;;;;;;;;;;;;;;;;;;;;;;;;;;;;;;;;==;;;;;;",
";;;;;;;;;;;;;;;;;;;;;;;;==;;;;;;;;;;;;;;;;;;;;;;;;;;;;;;;;;;;;;;;;;;;;;;;;;;;;;;;;;;;;;;;;;;;;;;;;;;;;;;;;;;;;;;;;;;;;;;==;;;;;;",
";;;;;;;;;;;;;;;;;;;;;;;;==;;;;;;;;;;;;;;;;;;;;;;;;;;;;;;;;;;;;;;;;;;;;;;;;;;;;;;;;;;;;;;;;;;;;;;;;;;;;;;;;;;;;;;;;;;;;;;==;;;;;;",
">>>>>>>>>>>>>>>>>>>>>>>>==>>>>>>>>>>>>>>>>>>>>>>>>>>>>>>>>>>>>>>>>>>>>>>>>>>>>>>>>>>>>>>>>>>>>>>>>>>>>>>>>>>>>>>>>>>>>>>==>>>>>>",
">>>>>>>>>>>>>>>>>>>>>>>>==>>>>>>>>>>>>>>>>>>>>>>>>>>>>>>>>>>>>>>>>>>>>>>>>>>>>>>>>>>>>>>>>>>>>>>>>>>>>>>>>>>>>>>>>>>>>>>==>>>>>>",
"================================================================================================================================",
"================================================================================================================================"};
