/* XPM */
static char * west_tex128_xpm[] = {
"128 128 14 1",
" 	c #001D35",
".	c #090909",
"+	c #001C35",
"@	c #080808",
"#	c #001C34",
"$	c #001B34",
"%	c #001B33",
"&	c #001A33",
"*	c #070707",
"=	c #001A32",
"-	c #001932",
";	c #001931",
">	c #060606",
",	c #001831",
"      ..                              ..                                    ..                              ..                  ",
"      ..                              ..                                    ..                              ..                  ",
"      ..                              ..                                    ..                              ..                  ",
"      ..                              ..                                    ..                              ..                  ",
"      ..                              ..                                    ..                              ..                  ",
"      ..                              ..                                    ..                              ..                  ",
"................................................................................................................................",
"................................................................................................................................",
"++++++++++++..++++++++++++++++++++++++++++++++++++..++++++++++++++++++++++++++++++++++++++..++++++++++++++++++++++++++++..++++++",
"++++++++++++..++++++++++++++++++++++++++++++++++++..++++++++++++++++++++++++++++++++++++++..++++++++++++++++++++++++++++..++++++",
"++++++++++++..++++++++++++++++++++++++++++++++++++..++++++++++++++++++++++++++++++++++++++..++++++++++++++++++++++++++++..++++++",
"++++++++++++..++++++++++++++++++++++++++++++++++++..++++++++++++++++++++++++++++++++++++++..++++++++++++++++++++++++++++..++++++",
"++++++++++++..++++++++++++++++++++++++++++++++++++..++++++++++++++++++++++++++++++++++++++..++++++++++++++++++++++++++++..++++++",
"++++++++++++..++++++++++++++++++++++++++++++++++++..++++++++++++++++++++++++++++++++++++++..++++++++++++++++++++++++++++..++++++",
"................................................................................................................................",
"................................................................................................................................",
"++++++..++++++++++++++++++++++++++..++++++++++++++++++++++++++++++++..++++++++++++++++++++++++++++++++..++++++++++++++++++++++++",
"++++++..++++++++++++++++++++++++++..++++++++++++++++++++++++++++++++..++++++++++++++++++++++++++++++++..++++++++++++++++++++++++",
"++++++..++++++++++++++++++++++++++..++++++++++++++++++++++++++++++++..++++++++++++++++++++++++++++++++..++++++++++++++++++++++++",
"++++++..++++++++++++++++++++++++++..++++++++++++++++++++++++++++++++..++++++++++++++++++++++++++++++++..++++++++++++++++++++++++",
"++++++..++++++++++++++++++++++++++..++++++++++++++++++++++++++++++++..++++++++++++++++++++++++++++++++..++++++++++++++++++++++++",
"++++++..++++++++++++++++++++++++++..++++++++++++++++++++++++++++++++..++++++++++++++++++++++++++++++++..++++++++++++++++++++++++",
"................................................................................................................................",
"................................................................................................................................",
"++++++++++++++++++..++++++++++++++++++++++++++++++++++..++++++++++++++++++++++++++++++..++++++++++++++++++++++++++++++++..++++++",
"++++++++++++++++++..++++++++++++++++++++++++++++++++++..++++++++++++++++++++++++++++++..++++++++++++++++++++++++++++++++..++++++",
"++++++++++++++++++..++++++++++++++++++++++++++++++++++..++++++++++++++++++++++++++++++..++++++++++++++++++++++++++++++++..++++++",
"++++++++++++++++++..++++++++++++++++++++++++++++++++++..++++++++++++++++++++++++++++++..++++++++++++++++++++++++++++++++..++++++",
"++++++++++++++++++..++++++++++++++++++++++++++++++++++..++++++++++++++++++++++++++++++..++++++++++++++++++++++++++++++++..++++++",
"++++++++++++++++++..++++++++++++++++++++++++++++++++++@@++++++++++++++++++++++++++++++@@++++++++++++++++++++++++++++++++..++++++",
"@@@@@@@@@@@@@@@@@@@@@@@@@@@@@@@@@@@@@@@@@@@@@@@@@@@@@@@@@@@@@@@@@@@@@@@@@@@@@@@@@@@@@@@@@@@@@@@@@@@@@@@@@@@@@@@@@@@@@@@@@@@@@@..",
"@@@@@@@@@@@@@@@@@@@@@@@@@@@@@@@@@@@@@@@@@@@@@@@@@@@@@@@@@@@@@@@@@@@@@@@@@@@@@@@@@@@@@@@@@@@@@@@@@@@@@@@@@@@@@@@@@@@@@@@@@@@@@@@@",
"++++++@@++++++++++++++++++++++++@@++++++++++++++++++++++++++++++++++++++++++@@++++++++++++++++++++++++++++++++++++@@++++++++++++",
"++++++@@++++++++++++++++++++++++@@++++++++++++++++++++++++++++++++++++++++++@@++++++++++++++++++++++++++++++++++++@@++++++++++++",
"++++++@@++++++++++++++++++++++++@@++++++++++++++++++++++++++++++++++++++++++@@++++++++++++++++++++++++++++++++++++@@++++++++++++",
"++++++@@########################@@##########################################@@####################################@@#+++++++++++",
"######@@########################@@##########################################@@####################################@@############",
"######@@########################@@##########################################@@####################################@@############",
"@@@@@@@@@@@@@@@@@@@@@@@@@@@@@@@@@@@@@@@@@@@@@@@@@@@@@@@@@@@@@@@@@@@@@@@@@@@@@@@@@@@@@@@@@@@@@@@@@@@@@@@@@@@@@@@@@@@@@@@@@@@@@@@@",
"@@@@@@@@@@@@@@@@@@@@@@@@@@@@@@@@@@@@@@@@@@@@@@@@@@@@@@@@@@@@@@@@@@@@@@@@@@@@@@@@@@@@@@@@@@@@@@@@@@@@@@@@@@@@@@@@@@@@@@@@@@@@@@@@",
"########################@@####################################@@################################@@######################@@######",
"########################@@####################################@@################################@@######################@@######",
"########################@@####################################@@################################@@######################@@######",
"########################@@####################################@@################################@@######################@@######",
"########################@@####################################@@################################@@######################@@######",
"############$$$$$$$$$$$$@@$$$$$$$$$$$$$$$$$$$$$$$$$$$$$$$$$$$$@@$$$$$$$$$$$$$$$$$$$$$$$$$$$$$$$$@@$$$$$$$$$$$$$$########@@######",
"@@@@@@@@@@@@@@@@@@@@@@@@@@@@@@@@@@@@@@@@@@@@@@@@@@@@@@@@@@@@@@@@@@@@@@@@@@@@@@@@@@@@@@@@@@@@@@@@@@@@@@@@@@@@@@@@@@@@@@@@@@@@@@@@",
"@@@@@@@@@@@@@@@@@@@@@@@@@@@@@@@@@@@@@@@@@@@@@@@@@@@@@@@@@@@@@@@@@@@@@@@@@@@@@@@@@@@@@@@@@@@@@@@@@@@@@@@@@@@@@@@@@@@@@@@@@@@@@@@@",
"$$$$$$@@$$$$$$$$$$$$$$$$$$$$$$$$$$$$$$$$$$$$@@$$$$$$$$$$$$$$$$$$$$$$$$$$$$$$$$$$$$$$$$@@$$$$$$$$$$$$$$$$$$$$$$$$$$@@$$$$$$$$$$$$",
"$$$$$$@@$$$$$$$$$$$$$$$$$$$$$$$$$$$$$$$$$$$$@@$$$$$$$$$$$$$$$$$$$$$$$$$$$$$$$$$$$$$$$$@@$$$$$$$$$$$$$$$$$$$$$$$$$$@@$$$$$$$$$$$$",
"$$$$$$@@$$$$$$$$$$$$$$$$$$$$$$$$$$$$$$$$$$$$@@$$$$$$$$$$$$$$$$$$$$$$$$$$$$$$$$$$$$$$$$@@$$$$$$$$$$$$$$$$$$$$$$$$$$@@$$$$$$$$$$$$",
"$$$$$$@@$$$$$$$$$$$$$$$$$$$$$$$$$$$$$$$$$$$$@@$$$$$$$$$$$$$$$$$$$$$$$$$$$$$$$$$$$$$$$$@@$$$$$$$$$$$$$$$$$$$$$$$$$$@@$$$$$$$$$$$$",
"$$$$$$@@$$$$$$$$$$$$$$$$$$$$$$$$$$$$$$$$$$$$@@$$$$$$$$$$$$$$$$$$$$$$$$$$$$$$$$$$$$$$$$@@$$$$$$$$$$$$$$$$$$$$$$$$$$@@$$$$$$$$$$$$",
"$$$$$$@@$$$$$$$$$$$$$$$$$$$$$$$$$$$$$$$$$$$$@@$$$$$$$$$$$$$$$$$$$$$$$$$$$$$$$$$$$$$$$$@@$$$$$$$$$$$$$$$$$$$$$$$$$$@@$$$$$$$$$$$$",
"@@@@@@@@@@@@@@@@@@@@@@@@@@@@@@@@@@@@@@@@@@@@@@@@@@@@@@@@@@@@@@@@@@@@@@@@@@@@@@@@@@@@@@@@@@@@@@@@@@@@@@@@@@@@@@@@@@@@@@@@@@@@@@@@",
"@@@@@@@@@@@@@@@@@@@@@@@@@@@@@@@@@@@@@@@@@@@@@@@@@@@@@@@@@@@@@@@@@@@@@@@@@@@@@@@@@@@@@@@@@@@@@@@@@@@@@@@@@@@@@@@@@@@@@@@@@@@@@@@@",
"$$$$$$$$$$$$$$$$$$@@$$$$$$$$$$$$$$$$$$$$$$$$$$$$$$$$$$@@$$$$$$$$$$$$$$$$$$$$$$$$$$$$$$$$$$$$$$$$@@$$$$$$$$$$$$$$$$$$$$$$@@$$$$$$",
"$$$$$$$$$$$$$$$$$$@@$$$$$$$$$$$$$$$$$$$$$$$$$$$$$$$$$$@@$$$$$$$$$$$$$$$$$$$$$$$$$$$$$$$$$$$$$$$$@@$$$$$$$$$$$$$$$$$$$$$$@@$$$$$$",
"$$$$$$$$$$$$$$$$$$@@$$$$$$$$$$$$$$$$$$$$$$$$$$$$$$$$$$@@$$$$$$$$$$$$$$$$$$$$$$$$$$$$$$$$$$$$$$$$@@$$$$$$$$$$$$$$$$$$$$$$@@$$$$$$",
"$$$$$$$$$$$$$$$$$$@@$$$$$$$$$$$$$$$$$$$$$$$$$$$$$$$$$$@@$$$$$$$$$$$$$$$$$$$$$$$$$$$$$$$$$$$$$$$$@@$$$$$$$$$$$$$$$$$$$$$$@@$$$$$$",
"$$$$$$$$$$$$$$$$$$@@$$$$$$$$$$$$$$$$$$$$$$$$$$$$$$$$$$@@$$$$$$$$$$$$$$$$$$$$$$$$$$$$$$$$$$$$$$$$@@$$$$$$$$$$$$$$$$$$$$$$@@$$$$$$",
"$$$$$$$$$$$$$$$$$$@@$$$$$$$$$$$$$$$$$$$$$$$$$$$$$$$$$$@@$$$$$$$$$$$$$$$$$$$$$$$$$$$$$$$$$$$$$$$$@@$$$$$$$$$$$$$$$$$$$$$$@@$$$$$$",
"@@@@@@@@@@@@@@@@@@@@@@@@@@@@@@@@@@@@@@@@@@@@@@@@@@@@@@@@@@@@@@@@@@@@@@@@@@@@@@@@@@@@@@@@@@@@@@@@@@@@@@@@@@@@@@@@@@@@@@@@@@@@@@@@",
"@@@@@@@@@@@@@@@@@@@@@@@@@@@@@@@@@@@@@@@@@@@@@@@@@@@@@@@@@@@@@@@@@@@@@@@@@@@@@@@@@@@@@@@@@@@@@@@@@@@@@@@@@@@@@@@@@@@@@@@@@@@@@@@@",
"$$$$$$@@$$$$$$$$$$$$$$$$$$$$$$$$$$$$$$@@$$$$$$$$$$$$$$$$$$$$$$$$$$$$$$@@$$$$$$$$$$$$$$$$$$$$$$$$$$$$$$@@$$$$$$$$$$$$$$$$$$$$$$$$",
"$$$$$$@@$$$$$$$%%%%%%%%%%%%%%%%%%%%%%%@@%%%%%%%%%%%%%%%%%%%%%%%%%%%%%%@@%%%%%%%%%%%%%%%%%%%%%%%%%%%%%%@@%%%%%%$$$$$$$$$$$$$$$$$$",
"%%%%%%@@%%%%%%%%%%%%%%%%%%%%%%%%%%%%%%@@%%%%%%%%%%%%%%%%%%%%%%%%%%%%%%@@%%%%%%%%%%%%%%%%%%%%%%%%%%%%%%@@%%%%%%%%%%%%%%%%%%%%%%%%",
"%%%%%%@@%%%%%%%%%%%%%%%%%%%%%%%%%%%%%%@@%%%%%%%%%%%%%%%%%%%%%%%%%%%%%%@@%%%%%%%%%%%%%%%%%%%%%%%%%%%%%%@@%%%%%%%%%%%%%%%%%%%%%%%%",
"%%%%%%@@%%%%%%%%%%%%%%%%%%%%%%%%%%%%%%@@%%%%%%%%%%%%%%%%%%%%%%%%%%%%%%@@%%%%%%%%%%%%%%%%%%%%%%%%%%%%%%@@%%%%%%%%%%%%%%%%%%%%%%%%",
"%%%%%%@@%%%%%%%%%%%%%%%%%%%%%%%%%%%%%%@@%%%%%%%%%%%%%%%%%%%%%%%%%%%%%%@@%%%%%%%%%%%%%%%%%%%%%%%%%%%%%%@@%%%%%%%%%%%%%%%%%%%%%%%%",
"@@@@@@@@@@@@@@@@@@@@@@@@@@@@@@@@@@@@@@@@@@@@@@@@@@@@@@@@@@@@@@@@@@@@@@@@@@@@@@@@@@@@@@@@@@@@@@@@@@@@@@@@@@@@@@@@@@@@@@@@@@@@@@@@",
"@@@@@@@@@@@@@@@@@@@@@@@@@@@@@@@@@@@@@@@@@@@@@@@@@@@@@@@@@@@@@@@@@@@@@@@@@@@@@@@@@@@@@@@@@@@@@@@@@@@@@@@@@@@@@@@@@@@@@@@@@@@@@@@@",
"%%%%%%%%%%%%%%%%%%@@%%%%%%%%%%%%%%%%%%%%%%%%%%%%%%%%%%@@%%%%%%%%%%%%%%%%%%%%%%%%%%%%%%@@%%%%%%%%%%%%%%%%%%%%%%%%%%%%%%%%@@%%%%%%",
"%%%%%%%%%%%%%%%%%%@@%%%%%%%%%%%%%%%%%%%%%%%%%%%%%%%%%%@@%%%%%%%%%%%%%%%%%%%%%%%%%%%%%%@@%%%%%%%%%%%%%%%%%%%%%%%%%%%%%%%%@@%%%%%%",
"%%%%%%%%%%%%%%%%%%@@%%%%%%%%%%%%%%%%%%%%%%%%%%%%%%%%%%@@%%%%%%%%%%%%%%%%%%%%%%%%%%%%%%@@%%%%%%%%%%%%%%%%%%%%%%%%%%%%%%%%@@%%%%%%",
"%%%%%%%%%%%%%%%%%%@@%%%%%%%%%%%%%%%%%%&&&&&&&&&&&&&&&&@@&&&&&&&&&&&&&&&&&&&&&&&&&&&&&&@@%%%%%%%%%%%%%%%%%%%%%%%%%%%%%%%%@@%%%%%%",
"&&&&&&&&&&&&&&&&&&@@&&&&&&&&&&&&&&&&&&&&&&&&&&&&&&&&&&@@&&&&&&&&&&&&&&&&&&&&&&&&&&&&&&@@&&&&&&&&&&&&&&&&&&&&&&&&&&&&&&&&@@&&&&&&",
"&&&&&&&&&&&&&&&&&&@@&&&&&&&&&&&&&&&&&&&&&&&&&&&&&&&&&&@@&&&&&&&&&&&&&&&&&&&&&&&&&&&&&&@@&&&&&&&&&&&&&&&&&&&&&&&&&&&&&&&&@@&&&&&&",
"@@@@@@@@@@@@@@@@@@@@@@@@@@@@@@@@@@@@@@@@@@@@@@@@@@@@@@@@@@@@@@@@@@@@@@@@@@@@@@@@@@@@@@@@@@@@@@@@@@@@@@@@@@@@@@@@@@@@@@@@@@@@@@@@",
"@@@@@@@@@@@@@@@@@@@@@@@@@@@@@@@@@@@@@@@@@@@@@@@@@@@@@@@@@@@@@@@@@@@@@@@@@@@@@@@@@@@@@@@@@@@@@@@@@@@@@@@@@@@@@@@@@@@@@@@@@@@@@@@@",
"&&&&&&@@&&&&&&&&&&&&&&&&&&&&&&&&@@&&&&&&&&&&&&&&&&&&&&&&&&&&&&&&&&&&&&&&&&&&@@&&&&&&&&&&&&&&&&&&&&&&&&&&&&&&@@&&&&&&&&&&&&&&&&&&",
"&&&&&&@@&&&&&&&&&&&&&&&&&&&&&&&&**&&&&&&&&&&&&&&&&&&&&&&&&&&&&&&&&&&&&&&&&&&**&&&&&&&&&&&&&&&&&&&&&&&&&&&&&&@@&&&&&&&&&&&&&&&&&&",
"&&&&&&**&&&&&&&&&&&&&&&&&&&&&&&&**&&&&&&&&&&&&&&&&&&&&&&&&&&&&&&&&&&&&&&&&&&**&&&&&&&&&&&&&&&&&&&&&&&&&&&&&&**&&&&&&&&&&&&&&&&&&",
"&&&&&&**&&&&&&&&&&&&&&&&&&&&&&&&**&&&&&&&&&&&&&&&&&&&&&&&&&&&&&&&&&&&&&&&&&&**&&&&&&&&&&&&&&&&&&&&&&&&&&&&&&**&&&&&&&&&&&&&&&&&&",
"&&&&&&**&&&&&&&&&&&&&&&&&&&&&&&&**&&&&&&&&&&&&&&&&&&&&&&&&&&&&&&&&&&&&&&&&&&**&&&&&&&&&&&&&&&&&&&&&&&&&&&&&&**&&&&&&&&&&&&&&&&&&",
"&&&&&&**&&&&&&&&&&&&&&&&&&&&&&&&**&&&&&&&&&&&&&&&&&&&&&&&&&&&&&&&&&&&&&&&&&&**&&&&&&&&&&&&&&&&&&&&&&&&&&&&&&**&&&&&&&&&&&&&&&&&&",
"********************************************************************************************************************************",
"********************************************************************************************************************************",
"&&&&&&&&&&&&**&&&&&&&&&&&&&&&&&&&&&&&&&&**&&&&&&&&&&&&&&&&&&&&&&&&&&**&&&&&&&&&&&&&&&&&&&&&&&&**&&&&&&&&&&&&&&&&&&&&&&&&**&&&&&&",
"&&&&&&&&&&&&**&&&&&&&&&&&&&&&&&&&&&&&&&&**&&&&&&&&&&&&&&&&&&&&&&&&&&**&&&&&&&&&&&&&&&&&&&&&&&&**&&&&&&&&&&&&&&&&&&&&&&&&**&&&&&&",
"&&&&&&&&&&&&**&&&&&&&&&&&&&&&&&&&&&&&&&&**&&&&&&&&&&&&&&&&&&&&&&&&&&**&&&&&&&&&&&&&&&&&&&&&&&&**&&&&&&&&&&&&&&&&&&&&&&&&**&&&&&&",
"&&&&&&&&&&&&**==========================**==========================**========================**==================&&&&&&**&&&&&&",
"============**==========================**==========================**========================**========================**======",
"============**==========================**==========================**========================**========================**======",
"********************************************************************************************************************************",
"********************************************************************************************************************************",
"======**==========================================**==============================**==================**========================",
"======**==========================================**==============================**==================**========================",
"======**==========================================**==============================**==================**========================",
"======**==========================================**==============================**==================**========================",
"======**==========================================**==============================**==================**========================",
"======**========----------------------------------**------------------------------**------------------**-------=================",
"********************************************************************************************************************************",
"********************************************************************************************************************************",
"------------------**----------------------------------------**--------------------------------**------------------------**------",
"------------------**----------------------------------------**--------------------------------**------------------------**------",
"------------------**----------------------------------------**--------------------------------**------------------------**------",
"------------------**----------------------------------------**--------------------------------**------------------------**------",
"------------------**----------------------------------------**--------------------------------**------------------------**------",
"------------------**----------------------------------------**--------------------------------**------------------------**------",
"********************************************************************************************************************************",
"********************************************************************************************************************************",
"------**--------------------------**--------------------------------------------------**--------------------**------------------",
"------**--------------------------**--------------------------------------------------**--------------------**------------------",
"------**--------------------------**--------------------------------------------------**--------------------**------------------",
";;;;;;**;;;;;;;;;;;;;;;;;;;;;;;;;;**;;;;;;;;;;;;;;;;;;;;;;;;;;;;;;;;;;;;;;;;;;;;;;;;;;**;;;;;;;;;;;;;;;;;;;;**;;;;;;;;;;;;;;;;;;",
";;;;;;**;;;;;;;;;;;;;;;;;;;;;;;;;;**;;;;;;;;;;;;;;;;;;;;;;;;;;;;;;;;;;;;;;;;;;;;;;;;;;**;;;;;;;;;;;;;;;;;;;;**;;;;;;;;;;;;;;;;;;",
";;;;;;**;;;;;;;;;;;;;;;;;;;;;;;;;;**;;;;;;;;;;;;;;;;;;;;;;;;;;;;;;;;;;;;;;;;;;;;;;;;;;**;;;;;;;;;;;;;;;;;;;;**;;;;;;;;;;;;;;;;;;",
"********************************************************************************************************************************",
"********************************************************************************************************************************",
";;;;;;;;;;;;;;;;;;;;;;;;**;;;;;;;;;;;;;;;;;;;;;;;;;;;;;;;;;;;;;;;;;;;;;;;;;;;;;;;;;;;;;;;;;;;;;;;;;;;;;;;;;;;;;;;;;;;;;;**;;;;;;",
";;;;;;;;;;;;;;;;;;;;;;;;**;;;;;;;;;;;;;;;;;;;;;;;;;;;;;;;;;;;;;;;;;;;;;;;;;;;;;;;;;;;;;;;;;;;;;;;;;;;;;;;;;;;;;;;;;;;;;;**;;;;;;",
";;;;;;;;;;;;;;;;;;;;;;;;>>;;;;;;;;;;;;;;;;;;;;;;;;;;;;;;;;;;;;;;;;;;;;;;;;;;;;;;;;;;;;;;;;;;;;;;;;;;;;;;;;;;;;;;;;;;;;;;**;;;;;;",
";;;;;;;;;;;;;;;;;;;;;;;;>>;;;;;;;;;;;;;;;;;;;;;;;;;;;;;;;;;;,,,,,,,,;;;;;;;;;;;;;;;;;;;;;;;;;;;;;;;;;;;;;;;;;;;;;;;;;;;;>>;;;;;;",
",,,,,,,,,,,,,,,,,,,,,,,,>>,,,,,,,,,,,,,,,,,,,,,,,,,,,,,,,,,,,,,,,,,,,,,,,,,,,,,,,,,,,,,,,,,,,,,,,,,,,,,,,,,,,,,,,,,,,,,,>>,,,,,,",
",,,,,,,,,,,,,,,,,,,,,,,,>>,,,,,,,,,,,,,,,,,,,,,,,,,,,,,,,,,,,,,,,,,,,,,,,,,,,,,,,,,,,,,,,,,,,,,,,,,,,,,,,,,,,,,,,,,,,,,,>>,,,,,,",
">>>>>>>>>>>>>>>>>>>>>>>>>>>>>>>>>>>>>>>>>>>>>>>>>>>>>>>>>>>>>>>>>>>>>>>>>>>>>>>>>>>>>>>>>>>>>>>>>>>>>>>>>>>>>>>>>>>>>>>>>>>>>>>>",
">>>>>>>>>>>>>>>>>>>>>>>>>>>>>>>>>>>>>>>>>>>>>>>>>>>>>>>>>>>>>>>>>>>>>>>>>>>>>>>>>>>>>>>>>>>>>>>>>>>>>>>>>>>>>>>>>>>>>>>>>>>>>>>>"};
