/* XPM */
static char * east_tex128_xpm[] = {
"128 128 5 1",
" 	c #002E46",
".	c #101010",
"+	c #002D46",
"@	c #002D45",
"#	c #002C45",
"      ..                              ..                                    ..                              ..                  ",
"      ..                             +..++++++++++++++++++++++++++++++++++++..++++++++                      ..                  ",
"      ..++++++++++++++++++++++++++++++..++++++++++++++++++++++++++++++++++++..++++++++++++++++++++++++++++++..+++++             ",
"++++++..++++++++++++++++++++++++++++++..++++++++++++++++++++++++++++++++++++..++++++++++++++++++++++++++++++..++++++++++++++++++",
"++++++..++++++++++++++++++++++++++++++..++++++++++++++++++++++++++++++++++++..++++++++++++++++++++++++++++++..++++++++++++++++++",
"++++++..++++++++++++++++++++++++++++++..++++++++++++++++++++++++++++++++++++..++++++++++++++++++++++++++++++..++++++++++++++++++",
"................................................................................................................................",
"................................................................................................................................",
"++++++++++++..++++++++++++++++++++++++++++++++++++..++++++++++++++++++++++++++++++++++++++..++++++++++++++++++++++++++++..++++++",
"++++++++++++..++++++++++++++++++++++++++++++++++++..++++++++++++++++++++++++++++++++++++++..++++++++++++++++++++++++++++..++++++",
"++++++++++++..++++++++++++++++++++++++++++++++++++..++++++++++++++++++++++++++++++++++++++..++++++++++++++++++++++++++++..++++++",
"++++++++++++..++++++++++++++++++++++++++++++++++++..++++++++++++++++++++++++++++++++++++++..++++++++++++++++++++++++++++..++++++",
"++++++++++++..++++++++++++++++++++++++++++++++++++..++++++++++++++++++++++++++++++++++++++..++++++++++++++++++++++++++++..++++++",
"++++++++++++..++++++++++++++++++++++++++++++++++++..++++++++++++++++++++++++++++++++++++++..++++++++++++++++++++++++++++..++++++",
"................................................................................................................................",
"................................................................................................................................",
"++++++..++++++++++++++++++++++++++..++++++++++++++++++++++++++++++++..++++++++++++++++++++++++++++++++..++++++++++++++++++++++++",
"++++++..++++++++++++++++++++++++++..++++++++++++++++++++++++++++++++..++++++++++++++++++++++++++++++++..++++++++++++++++++++++++",
"++++++..++++++++++++++++++++++++++..++++++++++++++++++++++++++++++++..++++++++++++++++++++++++++++++++..++++++++++++++++++++++++",
"++++++..++++++++++++++++++++++++++..++++++++++++++++++++++++++++++++..++++++++++++++++++++++++++++++++..++++++++++++++++++++++++",
"++++++..++++++++++++++++++++++++++..++++++++++++++++++++++++++++++++..++++++++++++++++++++++++++++++++..++++++++++++++++++++++++",
"++++++..++++++++++++++++++++++++++..++++++++++++++++++++++++++++++++..++++++++++++++++++++++++++++++++..++++++++++++++++++++++++",
"................................................................................................................................",
"................................................................................................................................",
"++++++++++++++++++..++++++++++++++++++++++++++++++++++..++++++++++++++++++++++++++++++..++++++++++++++++++++++++++++++++..++++++",
"++++++++++++++++++..++++++++++++++++++++++++++++++++++..++++++++++++++++++++++++++++++..++++++++++++++++++++++++++++++++..++++++",
"++++++++++++++++++..++++++++++++++++++++++++++++++++++..++++++++++++++++++++++++++++++..++++++++++++++++++++++++++++++++..++++++",
"++++++++++++++++++..++++++++++++++++++++++++++++++++++..++++++++++++++++++++++++++++++..++++++++++++++++++++++++++++++++..++++++",
"++++++++++++++++++..++++++++++++++++++++++++++++++++++..++++++++++++++++++++++++++++++..++++++++++++++++++++++++++++++++..++++++",
"++++++++++++++++++..++++++++++++++++++++++++++++++++++..++++++++++++++++++++++++++++++..++++++++++++++++++++++++++++++++..++++++",
"................................................................................................................................",
"................................................................................................................................",
"++++++..++++++++++++++++++++++++..++++++++++++++++++++++++++++++++++++++++++..++++++++++++++++++++++++++++++++++++..++++++++++++",
"++++++..++++++++++++++++++++++++..++++++++++++++++++++++++++++++++++++++++++..++++++++++++++++++++++++++++++++++++..++++++++++++",
"++++++..++++++++++++++++++++++++..++++++++++++++++++++++++++++++++++++++++++..++++++++++++++++++++++++++++++++++++..++++++++++++",
"++++++..++++++++++++++++++++++++..++++++++++++++++++++++++++++++++++++++++++..++++++++++++++++++++++++++++++++++++..++++++++++++",
"++++++..++++++++++++++++++++++++..++++++++++++++++++++++++++++++++++++++++++..++++++++++++++++++++++++++++++++++++..++++++++++++",
"++++++..++++++++++++++++++++++++..++++++++++++++++++++++++++++++++++++++++++..++++++++++++++++++++++++++++++++++++..++++++++++++",
"................................................................................................................................",
"................................................................................................................................",
"++++++++++++++++++++++++..++++++++++++++++++++++++++++++++++++..++++++++++++++++++++++++++++++++..++++++++++++++++++++++..++++++",
"++++++++++++++++++++++++..++++++++++++++++++++++++++++++++++++..++++++++++++++++++++++++++++++++..++++++++++++++++++++++..++++++",
"++++++++++++++++++++++++..++++++++++++++++++++++++++++++++++++..++++++++++++++++++++++++++++++++..++++++++++++++++++++++..++++++",
"++++++++++++++++++++++++..++++++++++++++++++++++++++++++++++++..++++++++++++++++++++++++++++++++..++++++++++++++++++++++..++++++",
"++++++++++++++++++++++++..++++++++++++++++++++++++++++++++++++..++++++++++++++++++++++++++++++++..++++++++++++++++++++++..++++++",
"++++++++++++++++++++++++..++++++++++++++++++++++++++++++++++++..++++++++++++++++++++++++++++++++..++++++++++++++++++++++..++++++",
"................................................................................................................................",
"................................................................................................................................",
"++++++..++++++++++++++++++++++++++++++++++++..++++++++++++++++++++++++++++++++++++++++..++++++++++++++++++++++++++..++++++++++++",
"++++++..++++++++++++++++++++++++++++++++++++..++++++++++++++++++++++++++++++++++++++++..++++++++++++++++++++++++++..++++++++++++",
"++++++..++++++++++++++++++++++++++++++++++++..++++++++++++++++++++++++++++++++++++++++..++++++++++++++++++++++++++..++++++++++++",
"++++++..++++++++++++++++++++++++++++++++++++..++++++++++++++++++++++++++++++++++++++++..++++++++++++++++++++++++++..++++++++++++",
"++++++..++++++++++++++++++++++++++++++++++++..++++++++++++++++++++++++++++++++++++++++..++++++++++++++++++++++++++..++++++++++++",
"++++++..++++++++++++++++++++++++++++++++++++..++++++++++++++++++++++++++++++++++++++++..++++++++++++++++++++++++++..++++++++++++",
"................................................................................................................................",
"................................................................................................................................",
"++++++++++++++++++..++++++++++++++++++++++++++++++++++..++++++++++++++++++++++++++++++++++++++++..++++++++++++++++++++++..++++++",
"++++++++++++++++++..++++++++++++++++++++++++++++++++++..++++++++++++++++++++++++++++++++++++++++..++++++++++++++++++++++..++++++",
"++++++++++++++++++..++++++++++++++++++++++++++++++++++..++++++++++++++++++++++++++++++++++++++++..++++++++++++++++++++++..++++++",
"++++++++++++++++++..++++++++++++++++++++++++++++++++++..++++++++++++++++++++++++++++++++++++++++..++++++++++++++++++++++..++++++",
"++++++++++++++++++..++++++++++++++++++++++++++++++++++..++++++++++++++++++++++++++++++++++++++++..++++++++++++++++++++++..++++++",
"++++++++++++++++++..++++++++++++++++++++++++++++++++++..++++++++++++++++++++++++++++++++++++++++..++++++++++++++++++++++..++++++",
"................................................................................................................................",
"................................................................................................................................",
"++++++..++++++++++++++++++++++++++++++..++++++++++++++++++++++++++++++..++++++++++++++++++++++++++++++..++++++++++++++++++++++++",
"++++++..++++++++++++++++++++++++++++++..++++++++++++++++++++++++++++++..++++++++++++++++++++++++++++++..++++++++++++++++++++++++",
"++++++..++++++++++++++++++++++++++++++..++++++++++++++++++++++++++++++..++++++++++++++++++++++++++++++..++++++++++++++++++++++++",
"++++++..++++++++++++++++++++++++++++++..++++++++++++++++++++++++++++++..++++++++++++++++++++++++++++++..++++++++++++++++++++++++",
"++++++..++++++++++++++++++++++++++++++..++++++++++++++++++++++++++++++..++++++++++++++++++++++++++++++..++++++++++++++++++++++++",
"++++++..++++++++++++++++++++++++++++++..++++++++++++++++++++++++++++++..++++++++++++++++++++++++++++++..++++++++++++++++++++++++",
"................................................................................................................................",
"................................................................................................................................",
"++++++++++++++++++..++++++++++++++++++++++++++++++++++..++++++++++++++++++++++++++++++..++++++++++++++++++++++++++++++++..++++++",
"++++++++++++++++++..++++++++++++++++++++++++++++++++++..++++++++++++++++++++++++++++++..++++++++++++++++++++++++++++++++..++++++",
"++++++++++++++++++..++++++++++++++++++++++++++++++++++..++++++++++++++++++++++++++++++..++++++++++++++++++++++++++++++++..++++++",
"++++++++++++++++++..++++++++++++++++++++++++++++++++++..++++++++++++++++++++++++++++++..++++++++++++++++++++++++++++++++..++++++",
"++++++++++++++++++..++++++++++++++++++++++++++++++++++..++++++++++++++++++++++++++++++..++++++++++++++++++++++++++++++++..++++++",
"++++++++++++++++++..++++++++++++++++++++++++++++++++++..++++++++++++++++++++++++++++++..++++++++++++++++++++++++++++++++..++++++",
"................................................................................................................................",
"................................................................................................................................",
"++++++..++++++++++++++++++++++++..++++++++++++++++++++++++++++++++++++++++++..++++++++++++++++++++++++++++++..++++++++++++++++++",
"++++++..++++++++++++++++++++++++..++++++++++++++++++++++++++++++++++++++++++..++++++++++++++++++++++++++++++..++++++++++++++++++",
"++++++..++++++++++++++++++++++++..++++++++++++++++++++++++++++++++++++++++++..++++++++++++++++++++++++++++++..++++++++++++++++++",
"++++++..++++++++++++++++++++++++..++++++++++++++++++++++++++++++++++++++++++..++++++++++++++++++++++++++++++..++++++++++++++++++",
"@@@@@@..@@@@@@@@@@@@@@@@@@@@@@@@..@@@@@@@@@@@@@@@@@@@@@@@@@@@@@@@@@@@@@@@@@@..@@@@@@@@@@@@@@@@@@@@@@@@@@@@@@..@@@@@@@@@@@@@@@@@@",
"@@@@@@..@@@@@@@@@@@@@@@@@@@@@@@@..@@@@@@@@@@@@@@@@@@@@@@@@@@@@@@@@@@@@@@@@@@..@@@@@@@@@@@@@@@@@@@@@@@@@@@@@@..@@@@@@@@@@@@@@@@@@",
"................................................................................................................................",
"................................................................................................................................",
"@@@@@@@@@@@@..@@@@@@@@@@@@@@@@@@@@@@@@@@..@@@@@@@@@@@@@@@@@@@@@@@@@@..@@@@@@@@@@@@@@@@@@@@@@@@..@@@@@@@@@@@@@@@@@@@@@@@@..@@@@@@",
"@@@@@@@@@@@@..@@@@@@@@@@@@@@@@@@@@@@@@@@..@@@@@@@@@@@@@@@@@@@@@@@@@@..@@@@@@@@@@@@@@@@@@@@@@@@..@@@@@@@@@@@@@@@@@@@@@@@@..@@@@@@",
"@@@@@@@@@@@@..@@@@@@@@@@@@@@@@@@@@@@@@@@..@@@@@@@@@@@@@@@@@@@@@@@@@@..@@@@@@@@@@@@@@@@@@@@@@@@..@@@@@@@@@@@@@@@@@@@@@@@@..@@@@@@",
"@@@@@@@@@@@@..@@@@@@@@@@@@@@@@@@@@@@@@@@..@@@@@@@@@@@@@@@@@@@@@@@@@@..@@@@@@@@@@@@@@@@@@@@@@@@..@@@@@@@@@@@@@@@@@@@@@@@@..@@@@@@",
"@@@@@@@@@@@@..@@@@@@@@@@@@@@@@@@@@@@@@@@..@@@@@@@@@@@@@@@@@@@@@@@@@@..@@@@@@@@@@@@@@@@@@@@@@@@..@@@@@@@@@@@@@@@@@@@@@@@@..@@@@@@",
"@@@@@@@@@@@@..@@@@@@@@@@@@@@@@@@@@@@@@@@..@@@@@@@@@@@@@@@@@@@@@@@@@@..@@@@@@@@@@@@@@@@@@@@@@@@..@@@@@@@@@@@@@@@@@@@@@@@@..@@@@@@",
"................................................................................................................................",
"................................................................................................................................",
"@@@@@@..@@@@@@@@@@@@@@@@@@@@@@@@@@@@@@@@@@@@@@@@@@..@@@@@@@@@@@@@@@@@@@@@@@@@@@@@@..@@@@@@@@@@@@@@@@@@..@@@@@@@@@@@@@@@@@@@@@@@@",
"@@@@@@..@@@@@@@@@@@@@@@@@@@@@@@@@@@@@@@@@@@@@@@@@@..@@@@@@@@@@@@@@@@@@@@@@@@@@@@@@..@@@@@@@@@@@@@@@@@@..@@@@@@@@@@@@@@@@@@@@@@@@",
"@@@@@@..@@@@@@@@@@@@@@@@@@@@@@@@@@@@@@@@@@@@@@@@@@..@@@@@@@@@@@@@@@@@@@@@@@@@@@@@@..@@@@@@@@@@@@@@@@@@..@@@@@@@@@@@@@@@@@@@@@@@@",
"@@@@@@..@@@@@@@@@@@@@@@@@@@@@@@@@@@@@@@@@@@@@@@@@@..@@@@@@@@@@@@@@@@@@@@@@@@@@@@@@..@@@@@@@@@@@@@@@@@@..@@@@@@@@@@@@@@@@@@@@@@@@",
"@@@@@@..@@@@@@@@@@@@@@@@@@@@@@@@@@@@@@@@@@@@@@@@@@..@@@@@@@@@@@@@@@@@@@@@@@@@@@@@@..@@@@@@@@@@@@@@@@@@..@@@@@@@@@@@@@@@@@@@@@@@@",
"@@@@@@..@@@@@@@@@@@@@@@@@@@@@@@@@@@@@@@@@@@@@@@@@@..@@@@@@@@@@@@@@@@@@@@@@@@@@@@@@..@@@@@@@@@@@@@@@@@@..@@@@@@@@@@@@@@@@@@@@@@@@",
"................................................................................................................................",
"................................................................................................................................",
"@@@@@@@@@@@@@@@@@@..@@@@@@@@@@@@@@@@@@@@@@@@@@@@@@@@@@@@@@@@..@@@@@@@@@@@@@@@@@@@@@@@@@@@@@@@@..@@@@@@@@@@@@@@@@@@@@@@@@..@@@@@@",
"@@@@@@@@@@@@@@@@@@..@@@@@@@@@@@@@@@@@@@@@@@@@@@@@@@@@@@@@@@@..@@@@@@@@@@@@@@@@@@@@@@@@@@@@@@@@..@@@@@@@@@@@@@@@@@@@@@@@@..@@@@@@",
"@@################..########################################..################################..########################..###@@@",
"##################..########################################..################################..########################..######",
"##################..########################################..################################..########################..######",
"##################..########################################..################################..########################..######",
"................................................................................................................................",
"................................................................................................................................",
"######..##########################..##################################################..####################..##################",
"######..##########################..##################################################..####################..##################",
"######..##########################..##################################################..####################..##################",
"######..##########################..##################################################..####################..##################",
"######..##########################..##################################################..####################..##################",
"######..##########################..##################################################..####################..##################",
"................................................................................................................................",
"................................................................................................................................",
"########################..##############################################################################################..######",
"########################..##############################################################################################..######",
"########################..##############################################################################################..######",
"########################..##############################################################################################..######",
"########################..##############################################################################################..######",
"########################..##############################################################################################..######",
"................................................................................................................................",
"................................................................................................................................"};
